<?xml version="1.0" encoding="UTF-8"?>
<svg id="Ebene_1" data-name="Ebene 1" xmlns="http://www.w3.org/2000/svg" version="1.1" viewBox="0 0 1024 1024">
  <defs>
    <style>
      .cls-1 {
        fill: #000;
      }

      .cls-1, .cls-2 {
        stroke-width: 0px;
      }

      .cls-3 {
        stroke: #fff;
      }

      .cls-3, .cls-4 {
        fill: none;
        stroke-linecap: round;
        stroke-linejoin: round;
        stroke-width: 16px;
      }

      .cls-4 {
        stroke: #000;
      }

      .cls-2 {
        fill: #fff;
      }
    </style>
  </defs>
  <rect class="cls-2" width="1024" height="1024"/>
  <g>
    <g>
      <g>
        <line class="cls-4" x1="512" y1="642.7" x2="512" y2="826.4"/>
        <circle class="cls-4" cx="512" cy="852.2" r="25.8"/>
      </g>
      <g>
        <circle class="cls-4" cx="594.5" cy="617" r="25.8"/>
        <line class="cls-4" x1="594.5" y1="642.7" x2="594.5" y2="757.3"/>
        <g>
          <line class="cls-4" x1="643.1" y1="783.1" x2="620.3" y2="783.1"/>
          <line class="cls-4" x1="622.2" y1="761.5" x2="643.8" y2="783.1"/>
          <line class="cls-4" x1="643.8" y1="783.1" x2="622.2" y2="804.7"/>
          <path class="cls-4" d="M620.3,783.1c-14.2,0-25.8-11.5-25.8-25.8"/>
        </g>
      </g>
      <g>
        <g>
          <line class="cls-4" x1="429.5" y1="759.4" x2="429.5" y2="642.8"/>
          <circle class="cls-4" cx="429.5" cy="617" r="25.8"/>
          <circle class="cls-4" cx="429.5" cy="785.2" r="25.8"/>
        </g>
        <g>
          <circle class="cls-4" cx="338.6" cy="572.8" r="25.8"/>
          <line class="cls-4" x1="364.4" y1="688.2" x2="403.7" y2="688.2"/>
          <line class="cls-4" x1="338.6" y1="662.4" x2="338.6" y2="598.6"/>
          <path class="cls-4" d="M403.7,688.2c14.2,0,25.8,11.5,25.8,25.8"/>
          <path class="cls-4" d="M364.4,688.2c-14.2,0-25.8-11.5-25.8-25.8"/>
        </g>
      </g>
      <g>
        <circle class="cls-4" cx="685.4" cy="572.8" r="25.8"/>
        <line class="cls-4" x1="659.6" y1="688.2" x2="620.3" y2="688.2"/>
        <line class="cls-4" x1="685.4" y1="662.4" x2="685.4" y2="598.6"/>
        <path class="cls-4" d="M620.3,688.2c-14.2,0-25.8,11.5-25.8,25.8"/>
        <path class="cls-4" d="M659.6,688.2c14.2,0,25.8-11.5,25.8-25.8"/>
      </g>
    </g>
    <path class="cls-1" d="M512,464.7s89.4-5.7,140.3,45.2c95.6,0,162.4-83.3,162.4-212.8-52.4,0,12.3,0-111,0-123.4,0-57.6-151.1-191.7-151.1-134.1,0-68.3,151.1-191.7,151.1s-58.6,0-111,0c0,129.6,66.8,212.8,162.4,212.8,50.9-50.9,140.3-45.2,140.3-45.2Z"/>
    <g>
      <g>
        <line class="cls-3" x1="584.4" y1="277" x2="440" y2="421.5"/>
        <g>
          <line class="cls-3" x1="480.5" y1="421.5" x2="440" y2="421.5"/>
          <line class="cls-3" x1="440" y1="421.5" x2="440" y2="381"/>
        </g>
      </g>
      <g>
        <line class="cls-3" x1="540.3" y1="377.7" x2="439.6" y2="277"/>
        <circle class="cls-3" cx="558.6" cy="396" r="25.8"/>
      </g>
    </g>
  </g>
</svg>