<?xml version="1.0" encoding="UTF-8"?>
<svg id="Ebene_1" data-name="Ebene 1" xmlns="http://www.w3.org/2000/svg" version="1.1" viewBox="0 0 1024 1024">
  <defs>
    <style>
      .cls-1 {
        fill: #000;
      }

      .cls-2 {
        fill: #fff;
      }

      @media (prefers-color-scheme:dark) {
        .cls-1 {
          fill: #fff;
        }

      .cls-2 {
          fill: #000;
        }
      }
    </style>
  </defs>
  <rect class="cls-2" width="1024" height="1024"/>
  <g>
    <g>
      <path class="cls-1" d="M520,819.4v-176.7c0-4.4-3.6-8-8-8s-8,3.6-8,8v176.7c-14.8,3.6-25.8,17-25.8,32.8s15.2,33.8,33.8,33.8,33.8-15.2,33.8-33.8-11-29.2-25.8-32.8ZM512,870c-9.8,0-17.8-8-17.8-17.8s8-17.8,17.8-17.8,17.8,8,17.8,17.8-8,17.8-17.8,17.8Z"/>
      <path class="cls-1" d="M437.5,649.8c14.8-3.6,25.8-17,25.8-32.8s-15.2-33.8-33.8-33.8-33.8,15.2-33.8,33.8,11,29.2,25.8,32.8v35.4c-5.2-3.2-11.3-5.1-17.8-5.1h-39.3c-9.8,0-17.8-8-17.8-17.8v-56.8c14.8-3.6,25.8-17,25.8-32.8s-15.2-33.8-33.8-33.8-33.8,15.2-33.8,33.8,11,29.2,25.8,32.8v56.8c0,18.6,15.2,33.8,33.8,33.8h39.3c9.8,0,17.8,8,17.8,17.8v38.4c-14.8,3.6-25.8,17-25.8,32.8s15.2,33.8,33.8,33.8,33.8-15.2,33.8-33.8-11-29.2-25.8-32.8v-102.5ZM320.8,572.8c0-9.8,8-17.8,17.8-17.8s17.8,8,17.8,17.8-8,17.8-17.8,17.8-17.8-8-17.8-17.8ZM411.7,617c0-9.8,8-17.8,17.8-17.8s17.8,8,17.8,17.8-8,17.8-17.8,17.8-17.8-8-17.8-17.8ZM447.3,785.2c0,9.8-8,17.8-17.8,17.8s-17.8-8-17.8-17.8,8-17.8,17.8-17.8,17.8,8,17.8,17.8Z"/>
      <path class="cls-1" d="M719.2,572.8c0-18.6-15.2-33.8-33.8-33.8s-33.8,15.2-33.8,33.8,11,29.2,25.8,32.8v56.8c0,9.8-8,17.8-17.8,17.8h-39.3c-6.5,0-12.6,1.9-17.8,5.1v-35.4c14.8-3.6,25.8-17,25.8-32.8s-15.2-33.8-33.8-33.8-33.8,15.2-33.8,33.8,11,29.2,25.8,32.8v107.5c0,18.6,15.2,33.8,33.8,33.8h4.2l-7.9,7.9c-3.1,3.1-3.1,8.2,0,11.3,1.6,1.6,3.6,2.3,5.7,2.3s4.1-.8,5.7-2.3l21.6-21.6s0,0,0,0c3.1-3.1,3.1-8.2,0-11.3l-21.6-21.6c-3.1-3.1-8.2-3.1-11.3,0-3.1,3.1-3.1,8.2,0,11.3l7.9,7.9h-4.2c-9.8,0-17.8-8-17.8-17.8v-43.3c0-9.8,8-17.8,17.8-17.8h39.3c18.6,0,33.8-15.2,33.8-33.8v-56.8c14.8-3.6,25.8-17,25.8-32.8ZM576.7,617c0-9.8,8-17.8,17.8-17.8s17.8,8,17.8,17.8-7.5,17.3-16.9,17.8c-.3,0-.6,0-.9,0s-.6,0-.9,0c-9.4-.5-16.9-8.2-16.9-17.8ZM685.4,590.6c-9.8,0-17.8-8-17.8-17.8s8-17.8,17.8-17.8,17.8,8,17.8,17.8-8,17.8-17.8,17.8Z"/>
    </g>
    <path class="cls-1" d="M512,464.7s89.4-5.7,140.3,45.2c95.6,0,162.4-83.3,162.4-212.8-52.4,0,12.3,0-111,0s-57.6-151.1-191.7-151.1-68.3,151.1-191.7,151.1-58.6,0-111,0c0,129.6,66.8,212.8,162.4,212.8,50.9-50.9,140.3-45.2,140.3-45.2h0Z"/>
    <path class="cls-2" d="M558.6,362.2c-6.4,0-12.4,1.8-17.6,4.9l-17.7-17.7,66.7-66.8c3.1-3.1,3.1-8.2,0-11.3-3.1-3.1-8.2-3.1-11.3,0l-66.7,66.8-66.8-66.8c-3.1-3.1-8.2-3.1-11.3,0-3.1,3.1-3.1,8.2,0,11.3l66.8,66.8-52.7,52.7v-21.2c0-4.4-3.6-8-8-8s-8,3.6-8,8v40.5s0,0,0,0c0,.3,0,.5,0,.8,0,.1,0,.2,0,.4,0,.1,0,.3,0,.4,0,.1,0,.3,0,.4,0,.1,0,.2,0,.4,0,.1,0,.3.1.4,0,.1,0,.2.1.3,0,.1.1.2.2.4,0,.1.1.2.2.4,0,.1.1.2.2.3,0,.1.1.2.2.3,0,.1.2.2.3.4,0,0,.1.2.2.3.3.4.7.8,1.1,1.1,0,0,.2.1.3.2.1,0,.2.2.4.3.1,0,.2.1.3.2.1,0,.2.1.3.2.1,0,.2.1.4.2.1,0,.2.1.3.2.1,0,.2,0,.4.1.1,0,.3,0,.4.1.1,0,.2,0,.4,0,.1,0,.3,0,.4,0,.1,0,.3,0,.4,0,.1,0,.2,0,.3,0,.3,0,.5,0,.8,0h40.5c4.4,0,8-3.6,8-8s-3.6-8-8-8h-21.2l52.7-52.8,17.7,17.7c-3.1,5.1-4.9,11.1-4.9,17.6,0,18.6,15.2,33.8,33.8,33.8s33.8-15.2,33.8-33.8-15.2-33.8-33.8-33.8ZM558.6,413.8c-9.8,0-17.8-8-17.8-17.8s8-17.8,17.8-17.8,17.8,8,17.8,17.8-8,17.8-17.8,17.8Z"/>
  </g>
</svg>